
        <svg xmlns="http://www.w3.org/2000/svg" xmlns:xlink="http://www.w3.org/1999/xlink" version="1.1" width="3160.377780517174" 
        height="847.5792323823719" viewBox="-32.07555610343476 0 3160.377780517174 847.5792323823719">
			<rect fill="#ffffff" width="3160.377780517174" height="847.5792323823719"/>
			<g transform="scale(8.01888902585869) translate(10, 10)">
				<defs id="SvgjsDefs2282"></defs><g id="SvgjsG2283" featureKey="HKaMnE-0" transform="matrix(1.4231756767613772,0,0,1.4231756767613772,-5.0748127647452845,0.30729729295449104)" fill="#0c056d"><g xmlns="http://www.w3.org/2000/svg"><polygon points="30.3,45.9 30.3,37.2 38.9,37.2 38.9,30.6 30.3,30.6 30.3,21.9 23.4,21.9 23.4,30.6 14.9,30.6 14.9,37.4 23.6,37.4    23.6,45.9  "></polygon><path d="M61.4,6.9c-0.9-0.8-2-1.4-3-1.9c-0.1-0.1-0.2-0.1-0.3-0.2C57.5,4.4,56.7,4,56,4c-0.4,0-0.7,0.1-1,0.3   c-0.8,0.6-1.2,1.3-1.2,2.1C53.9,7,54.3,7.6,55.1,8c0.3,0.1,0.5,0.2,0.8,0.2c0.4,0,0.8-0.1,1.1-0.3c0.3-0.1,0.5-0.2,0.8-0.2   c0.7,0,1.5,0.9,2.2,2.4c0.9,2.1-0.1,4.6-1,6.8c-0.2,0.5-0.4,1-0.6,1.5c-0.8,2.1-1.6,4.3-2.4,6.4c-0.6,0.3-1,0.8-1.1,1.5   c-0.7,4.5-3,4.9-3.7,4.9c0,0-0.1,0-0.1,0l-0.1,0c-1.1,0-2-0.8-2.7-2.2L48,28.5c-0.5-1.1-0.7-2.1-0.7-2.2c-0.1-0.6-0.4-1-0.9-1.3   c0-0.1-0.1-0.3-0.2-0.4c-1.1-3.1-2.6-7.2-3.9-11.3c-0.6-1.9-0.1-3.6,1.4-5c0.4-0.3,0.8-0.6,1.2-0.5c0.2,0,0.3,0.1,0.5,0.2   c0.3,0.1,0.6,0.3,1,0.3h0.1c1.2,0,2.4-0.8,2.4-2.1c0-0.6-0.2-1.1-0.6-1.5c-0.4-0.4-0.9-0.6-1.6-0.5c-0.6,0-1.1,0.2-1.6,0.4   c-0.3,0.1-0.6,0.2-0.9,0.3c-1.7,0.4-3.1,1.6-4,3.2c-1,1.9-1.3,4.2-0.6,6.3c1.2,3.7,2.5,7.6,3.8,11.6c-0.1,0.3-0.2,0.7-0.1,1.1   c0.2,1.1,0.5,2.1,0.9,3.1c0.7,1.6,1.8,3.2,3.4,4.2c0.4,0.2,0.8,0.4,1.2,0.6l0.4,0c0,0.7-0.1,1.4-0.2,2.1C48.7,41,47,44.8,44.5,48   c-5,6.2-12.7,9.3-20.5,8.2c-2.4-0.3-4.7-1-6.8-2l-1-0.5l-0.6,0.1L14.6,54c-0.9,0.3-1.7,0.5-2.6,0.6c-0.3,0.1-0.6,0.1-0.9,0.1   l-0.5,0.1c-1.4,0.2-3,0.2-4.8-0.1l-0.2,0c-0.3,0-0.5-0.1-0.7-0.1l2.8-2.8c0.3-0.3,0.5-0.5,0.7-0.7l1.7-2L8.6,47   c-3.3-4.7-4.8-10.4-4-16.1c0.5-4.1,2.2-7.9,4.8-11.1c3.9-4.8,9.2-7.7,15.2-8.3c0.7,1.4,2.2,2.5,3.9,2.5c2.4,0,4.3-1.9,4.3-4.3   c0-2.4-1.9-4.3-4.3-4.3c-1.8,0-3.3,1.1-4,2.6c-7.1,0.6-13.5,4-18,9.7c-3,3.7-4.9,8.2-5.5,12.9c-0.9,6.5,0.7,13.1,4.5,18.5   c-0.1,0.1-0.2,0.2-0.3,0.3L2,52.5c-0.9,0.9-1.2,2.1-0.9,3.2c0.5,1.4,1.8,2.3,4.1,2.6l0.2,0c2.1,0.3,4,0.3,5.7,0.1l0.4-0.1   c0.3,0,0.7-0.1,1.1-0.1c1-0.2,1.9-0.4,2.9-0.7l0,0c2.4,1.2,5.1,2,7.8,2.3C24.6,60,25.8,60,27,60c7.8,0,15.2-3.5,20.3-9.8   c3-3.7,4.9-8.2,5.5-12.9c0.1-0.9,0.2-1.7,0.2-2.6c1.4-0.3,2.8-1.4,3.6-2.5c1.2-1.5,1.8-3.5,2.2-5.4c0-0.3,0-0.6,0-0.8   c0.1-0.4,0.3-0.8,0.4-1.3c0.5-1.5,1.1-3.1,1.6-4.6c0.6-1.8,1.3-3.6,1.9-5.5c0.3-0.8,0.5-1.8,0.5-2.8C63.3,9.8,62.6,8,61.4,6.9z"></path></g></g><g id="SvgjsG2284" featureKey="J3GnXt-0" transform="matrix(1.995999449370469,0,0,1.995999449370469,108.84031972044968,18.822402322112012)" fill="#0c056d"><path d="M8.72 17.52 l-4.5 0 l-0.88 2.48 l-3.26 0 l4.9 -12.24 l3 0 l4.9 12.24 l-3.28 0 z M5.2 14.74 l2.54 0 l-1.26 -3.56 z M16.96 15 c0 1.48 0.74 2.32 2.24 2.32 c0.42 0 0.8 -0.06 1.1 -0.2 c0.56 -0.22 0.94 -0.64 1.14 -1.22 c0.08 -0.28 0.12 -0.58 0.12 -0.9 s-0.04 -0.62 -0.12 -0.9 c-0.22 -0.62 -0.56 -0.96 -1.14 -1.24 c-0.3 -0.12 -0.68 -0.18 -1.1 -0.18 c-1.5 0 -2.24 0.84 -2.24 2.32 z M16.96 19 l0 5 l-3 0 l0 -9 c0 -3.2 2.26 -5.1 5.28 -5.1 c3.08 0 5.32 2.02 5.32 5.08 c0 2.84 -2.14 5.12 -4.98 5.12 c-0.58 0 -1.08 -0.1 -1.5 -0.3 c-0.44 -0.18 -0.82 -0.46 -1.12 -0.8 z M28.96 15 c0 1.48 0.74 2.32 2.24 2.32 c0.42 0 0.8 -0.06 1.1 -0.2 c0.56 -0.22 0.94 -0.64 1.14 -1.22 c0.08 -0.28 0.12 -0.58 0.12 -0.9 s-0.04 -0.62 -0.12 -0.9 c-0.22 -0.62 -0.56 -0.96 -1.14 -1.24 c-0.3 -0.12 -0.68 -0.18 -1.1 -0.18 c-1.5 0 -2.24 0.84 -2.24 2.32 z M28.96 19 l0 5 l-3 0 l0 -9 c0 -3.2 2.26 -5.1 5.28 -5.1 c3.08 0 5.32 2.02 5.32 5.08 c0 2.84 -2.14 5.12 -4.98 5.12 c-0.58 0 -1.08 -0.1 -1.5 -0.3 c-0.44 -0.18 -0.82 -0.46 -1.12 -0.8 z M42.68 17.32 c1.46 0 2.3 -0.86 2.3 -2.32 s-0.84 -2.32 -2.3 -2.32 s-2.3 0.86 -2.3 2.32 s0.84 2.32 2.3 2.32 z M42.68 20.1 c-3.08 0 -5.3 -2.04 -5.3 -5.1 c0 -3.16 2.3 -5.1 5.3 -5.1 c3.1 0 5.3 2.04 5.3 5.1 c0 3.14 -2.32 5.1 -5.3 5.1 z M49.3 10 l3 0 l0 10 l-3 0 l0 -10 z M50.8 9.06 c-1.02 0 -1.74 -0.72 -1.74 -1.74 c0 -1.04 0.72 -1.72 1.74 -1.72 c1.04 0 1.72 0.68 1.72 1.72 c0 1.06 -0.66 1.74 -1.72 1.74 z M64.6 15 l0 5 l-3 0 l0 -5 c0 -1.38 -0.64 -2.32 -2.1 -2.32 c-1.44 0 -2.1 0.96 -2.1 2.32 l0 5 l-3 0 l0 -5 c0 -3.08 2.12 -5.1 5.1 -5.1 c3.1 0 5.1 2.12 5.1 5.1 z M72.08 10.34 l0 2.78 l-2.8 0 l0 1.88 c0 1.54 1.02 2.32 2.5 2.32 c0.18 0 0.34 -0.02 0.48 -0.04 s0.26 -0.04 0.4 -0.06 l0 2.78 c-0.18 0.02 -0.32 0.06 -0.42 0.08 c-0.12 0.02 -0.32 0.02 -0.58 0.02 c-3.02 0 -5.38 -2.06 -5.38 -5.1 l0 -7.4 l3 0 l0 2.74 l2.8 0 z M90.2 14.6 l0 5.4 l-3 0 l0 -5.4 c0 -1.14 -0.54 -1.92 -1.74 -1.92 c-1.18 0 -1.76 0.8 -1.76 1.92 l0 5.4 l-3 0 l0 -5.4 c0 -1.14 -0.58 -1.92 -1.78 -1.92 c-1.18 0 -1.72 0.8 -1.72 1.92 l0 5.4 l-3 0 l0 -5.4 c0 -2.9 1.98 -4.7 4.76 -4.7 c1.42 0 2.52 0.66 3.24 1.88 c0.72 -1.22 1.82 -1.88 3.24 -1.88 c2.88 0 4.76 1.9 4.76 4.7 z M94.74000000000001 13.8 c0.3 0.1 0.64 0.18 1 0.22 c0.36 0.06 0.7 0.08 1.02 0.08 c0.4 0 1.42 -0.08 1.42 -0.66 c0 -0.62 -0.88 -0.64 -1.32 -0.64 c-0.88 0 -1.64 0.2 -2.12 1 z M100.4 16.88 l0 2.8 c-1.12 0.26 -2.24 0.44 -3.4 0.44 c-3.18 0 -5.54 -1.86 -5.54 -5.08 c0 -3.18 2.28 -5.14 5.3 -5.14 c2.06 0 4.44 0.98 4.44 3.32 c0 2.32 -2.52 3.18 -4.46 3.18 c-0.74 0 -1.48 -0.2 -2.16 -0.48 c0.4 1.12 1.6 1.3 2.64 1.3 c0.54 0 1.08 -0.02 1.62 -0.1 c0.5 -0.04 1.08 -0.1 1.56 -0.24 z M112.88000000000001 15 l0 5 l-3 0 l0 -5 c0 -1.38 -0.64 -2.32 -2.1 -2.32 c-1.44 0 -2.1 0.96 -2.1 2.32 l0 5 l-3 0 l0 -5 c0 -3.08 2.12 -5.1 5.1 -5.1 c3.1 0 5.1 2.12 5.1 5.1 z M120.36000000000001 10.34 l0 2.78 l-2.8 0 l0 1.88 c0 1.54 1.02 2.32 2.5 2.32 c0.18 0 0.34 -0.02 0.48 -0.04 s0.26 -0.04 0.4 -0.06 l0 2.78 c-0.18 0.02 -0.32 0.06 -0.42 0.08 c-0.12 0.02 -0.32 0.02 -0.58 0.02 c-3.02 0 -5.38 -2.06 -5.38 -5.1 l0 -7.4 l3 0 l0 2.74 l2.8 0 z M122.02000000000002 19.68 l0 -2.8 c1.32 0.4 2.98 0.48 4.34 0.48 c0.54 0 0.96 -0.02 1.26 -0.08 c0.28 -0.04 0.42 -0.14 0.42 -0.28 c0 -0.06 -0.02 -0.1 -0.06 -0.16 c-0.2 -0.2 -0.64 -0.3 -0.9 -0.36 s-0.6 -0.14 -1.02 -0.22 c-0.34 -0.06 -0.74 -0.14 -1.2 -0.24 c-1.56 -0.34 -2.76 -1.22 -2.76 -2.9 c0 -2.48 2.42 -3.22 4.46 -3.22 c1.28 0 2.56 0.18 3.82 0.44 l0 2.82 c-1.26 -0.38 -2.68 -0.48 -4 -0.48 c-0.52 0 -0.88 0.02 -1.1 0.08 s-0.34 0.16 -0.34 0.28 c0 0.18 0.18 0.3 0.52 0.36 c0.34 0.08 0.82 0.18 1.4 0.28 c0.52 0.1 1.02 0.2 1.5 0.32 c1.48 0.38 2.54 1.18 2.54 2.78 c0 2.68 -2.7 3.34 -4.86 3.34 c-1.36 0 -2.7 -0.18 -4.02 -0.44 z"></path></g>
			</g>
		</svg>
	